HIERARCHY
ROOT Hips
{
	OFFSET -3.958830 18.904000 13.208200
	CHANNELS 6 Xposition Yposition Zposition Zrotation Yrotation Xrotation 
	JOINT LHipJoint
	{
		OFFSET 0.000000 0.000000 0.000000
		CHANNELS 3 Zrotation Yrotation Xrotation
		JOINT LeftUpLeg
		{
			OFFSET 1.800000 -1.400000 0.085000
			CHANNELS 3 Zrotation Yrotation Xrotation
			JOINT LeftLeg
			{
				OFFSET 2.215000 -6.000000 0.000000
				CHANNELS 3 Zrotation Yrotation Xrotation
				JOINT LeftFoot
				{
					OFFSET 2.500000 -6.900000 0.000000
					CHANNELS 3 Zrotation Yrotation Xrotation
					JOINT LeftToeBase
					{
						OFFSET 0.200000 -0.500000 1.950000
						CHANNELS 3 Zrotation Yrotation Xrotation
						End Site
						{
							OFFSET 0.000000 0.000000 0.000000
						}
					}
				}
			}
		}
	}
	JOINT RHipJoint
	{
		OFFSET 0.000000 0.000000 0.000000
		CHANNELS 3 Zrotation Yrotation Xrotation
		JOINT RightUpLeg
		{
			OFFSET -1.800000 -1.400000 0.085000
			CHANNELS 3 Zrotation Yrotation Xrotation
			JOINT RightLeg
			{
				OFFSET -2.215000 -6.000000 0.000000
				CHANNELS 3 Zrotation Yrotation Xrotation
				JOINT RightFoot
				{
					OFFSET -2.500000 -6.900000 0.000000
					CHANNELS 3 Zrotation Yrotation Xrotation
					JOINT RightToeBase
					{
						OFFSET -0.200000 -0.500000 1.950000
						CHANNELS 3 Zrotation Yrotation Xrotation
						End Site
						{
							OFFSET 0.000000 0.000000 0.000000
						}
					}
				}
			}
		}
	}
	JOINT LowerBack
	{
		OFFSET 0.000000 0.000000 0.000000
		CHANNELS 3 Zrotation Yrotation Xrotation
		JOINT Spine
		{
			OFFSET -0.087000 1.940000 -0.288900
			CHANNELS 3 Zrotation Yrotation Xrotation
			JOINT Spine1
			{
				OFFSET 0.000000 1.950000 0.060000
				CHANNELS 3 Zrotation Yrotation Xrotation
				JOINT Neck
				{
					OFFSET 0.000000 0.000000 0.000000
					CHANNELS 3 Zrotation Yrotation Xrotation
					JOINT Neck1
					{
						OFFSET 0.000000 1.600000 0.340000
						CHANNELS 3 Zrotation Yrotation Xrotation
						JOINT Head
						{
							OFFSET 0.000000 1.667000 -0.240000
							CHANNELS 3 Zrotation Yrotation Xrotation
							End Site
							{
								OFFSET 0.000000 0.000000 0.000000
							}
						}
					}
				}
				JOINT LeftShoulder
				{
					OFFSET 0.000000 0.000000 0.000000
					CHANNELS 3 Zrotation Yrotation Xrotation
					JOINT LeftArm
					{
						OFFSET 2.700000 1.550000 -0.730000
						CHANNELS 3 Zrotation Yrotation Xrotation
						JOINT LeftForeArm
						{
							OFFSET 5.450000 0.000000 0.000000
							CHANNELS 3 Zrotation Yrotation Xrotation
							JOINT LeftHand
							{
								OFFSET 3.450000 0.000000 0.000000
								CHANNELS 3 Zrotation Yrotation Xrotation
								JOINT LeftHandIndex1
								{
									OFFSET 0.750000 0.000000 0.000000
									CHANNELS 3 Zrotation Yrotation Xrotation
									End Site
									{
										OFFSET 0.000000 0.000000 0.000000
									}
								}
							}
						}
					}
				}
				JOINT RightShoulder
				{
					OFFSET 0.000000 0.000000 0.000000
					CHANNELS 3 Zrotation Yrotation Xrotation
					JOINT RightArm
					{
						OFFSET -2.700000 1.550000 -0.730000
						CHANNELS 3 Zrotation Yrotation Xrotation
						JOINT RightForeArm
						{
							OFFSET -5.450000 0.000000 0.000000
							CHANNELS 3 Zrotation Yrotation Xrotation
							JOINT RightHand
							{
								OFFSET -3.450000 0.000000 0.000000
								CHANNELS 3 Zrotation Yrotation Xrotation
								JOINT RightHandIndex1
								{
									OFFSET -0.750000 0.000000 0.000000
									CHANNELS 3 Zrotation Yrotation Xrotation
									End Site
									{
										OFFSET 0.000000 0.000000 0.000000
									}
								}
							}
						}
					}
				}
			}
		}
	}
}
MOTION
Frames: 12
Frame Time: 0.016667
-0.325950 17.641040 -2.292110 -24.520046 49.505633 -29.814597 -15.442282 14.649489 2.986386 13.558036 -0.406984 0.493541 -2.753790 5.435911 9.213637 -0.465275 4.918429 2.912044 0.472680 -0.025230 0.614020 17.734068 -10.375936 2.944563 -22.415269 -2.680125 -30.896335 3.952040 -5.784734 17.715250 -0.253079 -2.851437 3.185616 -0.026420 -0.047160 0.083820 -3.306381 -3.945973 -8.027158 13.218929 -7.286688 37.145216 -0.149517 -3.906211 8.017866 1.054120 3.394876 -13.153944 -1.239155 -6.830002 58.528762 15.003040 -9.965360 -21.566950 -7.942513 -26.441545 1.093110 23.093578 -22.081433 -8.710021 34.735237 -45.945297 -10.901704 -3.335932 2.535063 1.070510 -0.314920 0.257070 0.025540 6.106766 22.054080 11.725137 -18.968144 0.335909 -3.512255 -5.014336 3.065485 0.391922 2.454150 -0.713329 -0.316960 0.322510 -0.038760 -0.348590 
-0.370860 17.655130 -2.314040 -25.575778 49.759747 -30.958410 -15.433727 14.718025 2.953666 14.320850 -0.541511 -0.416755 -2.799004 5.556050 10.268562 -0.461888 4.950736 2.901971 0.477570 -0.011570 0.593880 17.731874 -10.373604 2.965727 -21.632993 -1.935556 -31.696200 4.602322 -6.370804 21.587658 -0.255666 -3.190904 3.058959 -0.008680 -0.021420 0.088340 -3.267581 -4.039521 -7.971059 13.594961 -7.371855 38.208178 0.123249 -3.856112 8.656712 0.949099 3.193171 -13.074707 -1.593329 -7.015177 55.907355 14.343650 -10.341310 -20.633940 -6.613158 -26.645874 0.625094 23.830141 -22.852878 -9.154210 30.561931 -44.001500 -8.876744 -3.353735 2.634522 1.018430 -0.293370 0.228350 0.043580 4.884534 22.426442 12.155667 -18.817550 0.973990 -3.935544 -7.503656 1.213400 0.217442 2.521413 -0.741696 -0.306670 0.316220 -0.044010 -0.324410 
-0.455900 17.680530 -2.308930 -25.609345 50.457562 -31.561144 -15.475567 14.762251 2.860282 14.694520 -0.481058 -1.334801 -2.917355 5.746768 11.736985 -0.376722 4.926102 2.909658 0.587640 0.182110 0.558330 17.727260 -10.200347 3.126535 -20.422895 -0.050902 -33.940853 4.935073 -7.946317 31.972760 -0.402375 -4.475533 2.625968 0.088860 0.010900 0.116100 -3.049345 -4.350281 -7.936692 11.638728 -6.102478 39.403225 1.833338 -3.524260 10.541817 0.441177 3.257037 -12.368576 -0.956826 -7.511079 51.204673 14.727650 -10.512960 -20.370480 -3.867095 -26.189671 -0.048952 24.699688 -23.867387 -9.772913 25.776362 -37.053859 -6.136159 -3.366020 2.829512 0.880890 -0.255190 0.218030 0.141800 3.132850 22.472627 11.767624 -17.892911 3.731908 -5.234546 -13.928304 1.089342 -0.273935 2.573884 -0.955751 -0.209410 0.291900 -0.127130 -0.230390 
-0.539600 17.719790 -2.309250 -26.840911 50.729567 -33.323146 -15.511792 14.534528 2.673122 16.677916 -0.388923 -2.299059 -3.884264 6.292842 13.187084 -0.395387 5.183854 2.811975 0.665790 0.329960 0.508500 17.785869 -9.848006 3.415636 -19.049677 2.674222 -35.068264 6.990823 -10.861775 43.088480 -0.717221 -6.514005 1.955139 0.228760 0.095470 0.117680 -3.012521 -4.330743 -7.988698 11.452705 -5.604804 40.262232 2.436223 -3.628208 13.972533 0.370442 3.348188 -11.179828 0.541189 -7.943677 44.928550 13.415760 -10.146000 -19.918310 -0.798619 -24.974633 -0.200753 22.942859 -22.650918 -10.176042 29.435481 -34.636462 -7.512416 -3.447467 2.919690 0.756040 -0.173960 0.144700 0.210420 0.271155 21.784355 10.337655 -14.019940 7.371009 -7.926279 -25.171522 4.094644 -2.086878 2.484050 -1.313904 -0.199900 0.331250 -0.145830 -0.174030 
-0.604350 17.746550 -2.265240 -27.462694 51.319573 -34.930779 -15.552480 14.118905 2.482018 18.636191 -0.031619 -2.032381 -5.502437 7.072418 14.095363 -0.309985 5.534919 2.672772 0.726500 0.425030 0.484730 17.863783 -9.431082 3.803236 -18.020440 5.762382 -35.517095 9.955236 -15.467062 54.669427 -1.312189 -9.047633 1.174993 0.284810 0.119910 0.160120 -3.174738 -3.945085 -8.193204 12.154021 -5.381441 41.209226 1.472295 -3.459050 16.828015 0.526326 2.961047 -11.208006 0.855349 -8.023660 41.446099 13.385650 -10.274000 -20.088510 1.949171 -24.717785 1.108999 16.942134 -19.200583 -11.155242 41.073474 -36.707629 -13.117605 -3.476835 3.014149 0.680380 -0.142430 0.129470 0.252540 -2.706825 22.393117 9.438390 -6.715417 8.742463 -12.179549 -40.112322 12.266278 -7.004104 2.347516 -1.670043 -0.142610 0.302200 -0.167780 -0.126870 
-0.677050 17.761330 -2.231680 -27.478742 52.598661 -35.384618 -15.628398 13.854710 2.202802 19.050479 0.192281 -3.647173 -5.797971 7.765526 17.117657 -0.342820 5.740707 2.559553 0.671250 0.350210 0.482990 17.872566 -9.002589 4.305956 -17.542870 8.448456 -36.123836 13.796169 -21.653880 64.576557 -1.980842 -11.558486 0.483349 0.257900 0.115270 0.146720 -3.256488 -3.749773 -8.441035 12.003825 -4.262881 41.615087 1.201537 -2.389232 17.724654 0.708010 3.829995 -11.912252 2.736848 -8.779596 41.581638 13.105530 -10.362340 -19.770010 2.267177 -26.466344 2.221906 13.135960 -18.325836 -12.221564 48.438278 -36.126905 -16.568573 -3.537010 2.961473 0.693460 -0.133670 0.107260 0.203370 -3.395628 24.093881 9.566318 0.521301 8.250302 -16.409847 -54.769470 23.188464 -15.541069 2.206929 -1.710624 -0.178130 0.297790 -0.129140 -0.159950 
-0.727810 17.712790 -2.190880 -28.954030 53.808349 -35.742089 -15.690377 13.235176 1.876849 19.843665 0.135557 -5.744771 -6.391248 8.395635 19.235425 -0.418827 5.975023 2.453879 0.604950 0.237420 0.498650 17.940286 -8.609445 4.815149 -16.563097 10.756664 -38.030821 18.407319 -29.690505 72.790584 -2.683531 -14.069979 -0.127414 0.231800 0.146820 0.150070 -3.902188 -2.641735 -8.772884 14.877068 -4.957406 40.196929 -1.079002 -2.388760 18.137861 1.122234 4.519974 -11.786106 5.022073 -9.158822 40.072905 11.090990 -9.826880 -18.678690 2.099218 -26.024886 3.044478 9.614351 -16.158769 -12.437977 57.384484 -42.095492 -23.292202 -3.487203 2.766671 0.690920 -0.082210 0.051620 0.150010 -3.766056 23.111218 9.214098 9.911274 11.343517 -18.336061 -71.339189 32.766983 -29.238183 2.023134 -1.564333 -0.239130 0.301590 -0.076750 -0.208520 
-0.747280 17.659210 -2.133700 -29.401704 54.761205 -36.317301 -15.732824 12.885286 1.737010 20.458335 0.306468 -5.709101 -7.369291 8.973343 19.824218 -0.373253 6.154828 2.370623 0.593210 0.183290 0.528010 17.953680 -8.264764 5.145058 -15.020485 12.646478 -37.725961 22.208497 -38.091972 79.890870 -3.405418 -16.168444 -0.554222 0.171320 0.090370 0.165920 -4.195117 -2.217224 -9.045565 15.447873 -4.788759 39.938293 -1.685725 -2.479186 18.057922 0.922578 4.805952 -12.163527 5.975902 -8.766961 43.548258 13.963180 -9.228430 -20.826840 1.208077 -25.615353 4.173134 4.902418 -13.471179 -12.815933 69.379030 -50.012102 -34.768329 -3.269609 2.473737 0.792120 -0.147460 0.111030 0.132970 -2.283031 22.596683 9.074156 15.029726 15.258622 -17.427314 -87.750460 44.002426 -49.176456 1.893296 -1.068775 -0.243080 0.264400 -0.083110 -0.242890 
-0.764450 17.586780 -2.065130 -28.760449 56.567553 -35.817951 -15.820286 12.563299 1.555991 19.681808 0.618648 -4.463138 -7.732088 8.717939 17.888018 -0.309592 5.945793 2.502153 0.617860 0.237560 0.523710 17.912977 -7.980549 5.454946 -14.156117 14.184218 -36.894279 27.835902 -46.934014 83.453672 -3.914926 -17.631336 -0.780949 0.191780 0.102580 0.144880 -4.522347 -1.671150 -9.224094 15.597122 -4.108118 38.606521 -2.366333 -2.113516 19.096872 1.268719 4.544898 -11.943438 6.343248 -8.581262 43.176981 14.568750 -9.392180 -20.631500 -0.073072 -23.692738 4.817063 -1.165544 -12.527724 -12.324970 82.920189 -56.591107 -50.734596 -3.100033 2.027604 0.743870 -0.146240 0.106560 0.173960 -1.429438 21.686039 8.812640 18.607840 20.230815 -14.310943 -101.405727 49.642927 -69.366456 1.960165 -0.748806 -0.223710 0.271490 -0.133970 -0.208070 
-0.794420 17.552420 -1.985350 -24.528681 59.656412 -33.084666 -15.962293 12.520688 1.453432 16.843209 0.946004 -2.820239 -7.939749 8.644133 17.685028 -0.295559 5.881032 2.575258 0.551870 0.176160 0.427580 17.776655 -7.795877 5.730838 -14.480839 14.681193 -35.122867 37.341856 -54.292226 80.315152 -4.002479 -17.607652 -0.708969 0.168480 0.188040 0.125820 -4.465514 -1.726873 -9.272619 12.014382 -1.667327 39.135347 -1.336381 -0.479491 19.511160 0.780919 4.615381 -12.092693 6.962359 -9.160487 43.913950 17.619720 -10.916480 -20.396720 -1.840474 -22.559899 5.277457 -6.403938 -12.359214 -11.413567 93.074090 -63.401762 -68.284144 -3.118809 1.370829 0.741420 -0.117530 0.060500 0.181820 1.293325 22.065536 8.976985 21.083578 23.563782 -10.693461 -114.017218 56.719101 -95.138248 2.183823 -0.459090 -0.261510 0.320640 -0.080550 -0.181210 
-0.785300 17.525580 -1.899240 -19.613202 63.275179 -29.727339 -16.078257 12.835200 1.479505 14.120852 1.165526 -2.281533 -7.685006 9.583374 22.351142 -0.137040 6.204337 2.450285 0.584800 0.230420 0.483140 17.622951 -7.681981 5.864217 -15.274539 13.834852 -32.102709 47.099523 -59.100036 74.385527 -3.893583 -16.602518 -0.482516 0.162450 0.122780 0.123820 -3.672688 -2.786819 -9.114079 5.740742 1.661840 39.678542 2.319719 1.284459 19.182992 0.796851 5.252416 -13.014658 8.781775 -10.128696 46.411245 17.774490 -10.754400 -20.795810 -5.051530 -22.242495 7.342947 -12.337276 -9.560800 -9.939702 113.398543 -67.659280 -104.546553 -3.410921 2.451639 0.754230 -0.160290 0.128780 0.182300 4.355782 23.832466 8.539355 21.054802 25.728730 -8.803859 -131.642978 63.726950 -131.258188 2.265809 -1.329913 -0.219040 0.296920 -0.136760 -0.177800 
-0.775750 17.485450 -1.823500 -12.907252 67.061569 -22.898104 -16.094491 12.999924 1.613588 10.547498 0.768779 -3.657219 -6.958385 9.695922 25.406560 -0.177283 6.265035 2.393428 0.596870 0.231530 0.546060 17.572975 -7.911016 5.686425 -15.634485 12.079009 -29.457609 56.237539 -58.353065 64.647635 -3.574760 -15.132044 -0.180776 0.175570 0.089590 0.103720 -2.934363 -3.464433 -8.783251 -1.028037 4.908271 37.900414 6.387829 3.167080 17.531623 0.550326 6.636238 -13.056466 12.606816 -12.260786 47.421595 17.463040 -10.489730 -21.166410 -5.868509 -21.917433 7.643495 -21.771711 -6.571138 -12.579930 154.124285 -76.770725 -162.074432 -3.104774 3.317513 0.807350 -0.178780 0.154200 0.144750 5.900915 24.705900 7.587574 26.689822 27.009753 -11.122983 -174.856663 72.544890 168.578397 1.892835 -1.493863 -0.248640 0.322770 -0.133030 -0.221270 
